<?xml version="1.0" encoding="utf-8"?>
<!-- Generator: Adobe Illustrator 21.1.0, SVG Export Plug-In . SVG Version: 6.00 Build 0)  -->
<svg version="1.0" id="Layer_1" xmlns="http://www.w3.org/2000/svg" xmlns:xlink="http://www.w3.org/1999/xlink" x="0px" y="0px"
	 viewBox="0 0 193.1 412.5" style="enable-background:new 0 0 193.1 412.5;" xml:space="preserve">
<g id="JAisib.tif">
	<g>
		<path d="M0,205.5c0-23,0-46,0-69c13.8,0,27.5,0,41.8,0c0-2.6,0-4.4,0-6.2c0.1-19-0.2-38,0.2-57c0.5-22.3,8-41.8,26-56.1
			c13.8-11,30.1-16,47.3-16.6C140.2-0.3,165,0.1,189.9,0c0.9,0,1.8,0.4,2.7,0.6c0,23.9,0,47.5,0,71.4c-1.9,0.1-3.5,0.2-5.1,0.2
			c-13.2,0-26.3,0.3-39.5-0.1c-9.4-0.3-20.9,8.7-20.3,20.2c0.7,12.6,0.2,25.3,0.2,38c0,1.7,0.2,3.5,0.3,6c21.7,0,43,0,65,0
			c-2.7,23.6-5.3,46.4-8,69.7c-19.5,0-38.3,0-57.6,0c0,2.7,0,4.8,0,6.9c0,53.8,0,107.7,0,161.5c0,12.7-0.3,25.3-0.5,38
			c-28.3,0-56.7,0-85,0c0-68.6,0-137.2,0-206.5c-2.8,0-5,0-7.1,0C23.3,205.8,11.6,205.6,0,205.5z"/>
	</g>
</g>
</svg>
