<?xml version="1.0" encoding="utf-8"?>
<!-- Generator: Adobe Illustrator 21.1.0, SVG Export Plug-In . SVG Version: 6.00 Build 0)  -->
<svg version="1.0" id="Layer_1" xmlns="http://www.w3.org/2000/svg" xmlns:xlink="http://www.w3.org/1999/xlink" x="0px" y="0px"
	 viewBox="0 0 169.4 108" style="enable-background:new 0 0 169.4 108;" xml:space="preserve">
<g id="Lw00Gj.tif">
	<g>
		<path d="M50.4,108c-10.1-1.6-19.7-4.5-28.2-10.6C-1.9,80.1-7.2,46.1,10.4,21.9C27.9-2,62.2-7.2,85.5,10.5c1.3,1,2.5,2.1,3.5,3.1
			c-4.6,4.8-8.9,9.3-13.6,14.1c-10-8.2-21.2-10.2-33.2-6c-9.5,3.3-16,10.1-19.7,19.4c-7.5,18.7,2.7,39.8,22,45.6
			c17.7,5.3,35.8-4.4,39.6-22c-10,0-19.9,0-30.1,0c0-6.5,0-12.2,0-18.2c16.8,0,33.3,0,49.9,0c7.2,22.2-9.1,51.5-32.6,58.4
			c-4.6,1.4-9.4,2.1-14.1,3.1C55,108,52.7,108,50.4,108z"/>
		<path d="M169.4,61c-5,0-9.9,0-15.5,0c0,5.5,0,10.3,0,15.4c-5.3,0-10,0-15.3,0c0-4.8,0-9.5,0-14.8c-5.2,0-10,0-15.1,0
			c0-5.3,0-10,0-15.2c4.8,0,9.5,0,14.8,0c0-5.2,0-10,0-15.1c5.2,0,9.9,0,15.2,0c0,4.8,0,9.5,0,14.8c5.6,0,10.7,0,15.8,0
			C169.4,51,169.4,56,169.4,61z"/>
	</g>
</g>
</svg>
