<?xml version="1.0" encoding="utf-8"?>
<!-- Generator: Adobe Illustrator 21.1.0, SVG Export Plug-In . SVG Version: 6.00 Build 0)  -->
<svg version="1.0" id="Layer_1" xmlns="http://www.w3.org/2000/svg" xmlns:xlink="http://www.w3.org/1999/xlink" x="0px" y="0px"
	 viewBox="0 0 228 228.1" style="enable-background:new 0 0 228 228.1;" xml:space="preserve">
<g id="LnnLEJ.tif">
	<g>
		<path d="M114.1,0.1c10.4,0,20.8-0.3,31.2,0.1c12.6,0.4,25.3,0.1,37.6,3.9c23.6,7.2,37.8,23.2,42.4,47.2c1.7,8.7,2.1,17.7,2.3,26.5
			c0.4,22.7,0.5,45.3,0.2,68c-0.1,11.9-0.1,24-3.4,35.7c-6.9,24.4-23,39.2-47.8,44c-8.7,1.7-17.7,2.1-26.5,2.3
			c-22.6,0.4-45.1,0.5-67.7,0.2c-11.9-0.1-23.8-0.2-35.4-3.4c-24.5-6.8-39.3-22.8-44.3-47.5c-1.7-8.7-2.2-17.8-2.3-26.8
			C0,127.6-0.1,105,0.1,82.3c0.1-11.9,0.1-24,3.4-35.7c6.9-24.4,23-39.2,47.8-43.9C60,1.1,69,0.7,77.9,0.4
			c12.1-0.4,24.1-0.1,36.2-0.1C114.1,0.3,114.1,0.2,114.1,0.1z M207.3,114.2c0.1,0,0.1,0,0.2,0c0-9.8,0.3-19.7-0.1-29.5
			c-0.3-9.7-0.5-19.5-2.1-29.1c-2.7-16.6-12.4-27.5-28.9-32.2c-9.2-2.6-18.8-2.7-28.2-2.8c-21.2-0.3-42.5-0.3-63.7,0
			c-9.7,0.1-19.5,0.5-29.1,2C39.7,25.3,28.8,34.4,23.9,50c-3.1,9.7-3.1,19.7-3.2,29.7c-0.3,21.2-0.3,42.5,0,63.7
			c0.1,9.7,0.5,19.5,2,29.1c2.8,16.8,12.7,27.8,29.4,32.3c9.1,2.5,18.5,2.5,27.7,2.7c21.2,0.3,42.3,0.3,63.5,0
			c9.8-0.1,19.7-0.4,29.3-2.1c16.8-2.8,27.7-12.8,32.2-29.5c2.1-8,2.4-16.1,2.5-24.2C207.5,139.2,207.3,126.7,207.3,114.2z"/>
		<path d="M114,172.6c-32.3,0-58.5-26.2-58.5-58.6c0-32.4,26.3-58.4,58.9-58.4c32.1,0,58.1,26.4,58.1,59
			C172.5,146.4,146.1,172.6,114,172.6z M113.9,152.1c21,0,38-16.8,38.1-37.7c0.1-21.3-16.8-38.4-38-38.4C92.9,76,76,92.9,75.9,114
			C75.9,135.1,92.8,152.1,113.9,152.1z"/>
		<path d="M188.5,53.1c0,7.6-6.1,13.7-13.6,13.6c-7.6,0-13.6-6.1-13.6-13.7c0.1-7.6,6.1-13.6,13.7-13.5
			C182.4,39.6,188.5,45.7,188.5,53.1z"/>
	</g>
</g>
</svg>
