<?xml version="1.0" encoding="utf-8"?>
<!-- Generator: Adobe Illustrator 21.1.0, SVG Export Plug-In . SVG Version: 6.00 Build 0)  -->
<svg version="1.0" id="Layer_1" xmlns="http://www.w3.org/2000/svg" xmlns:xlink="http://www.w3.org/1999/xlink" x="0px" y="0px"
	 viewBox="0 0 36 36.1" style="enable-background:new 0 0 36 36.1;" xml:space="preserve">
<style type="text/css">
	.st0{fill:#FFFFFF;}
	.st1{fill:#000375;}
</style>
<g id="dEmkP2.tif">
	<g>
		<path class="st0" d="M0,19.6c0.2-0.7,0.3-1.4,0.6-2.1c1.1-3.6,3.4-6.3,6.7-8.1C7.6,9.2,8,9,8.4,9.4c2.8,2.9,5.7,5.7,8.6,8.6
			c-0.1,0.2-0.2,0.3-0.4,0.4C11.2,23.9,5.8,29.4,0.4,34.8C0.3,34.9,0.1,35,0,35.1C0,29.9,0,24.8,0,19.6z"/>
		<path class="st0" d="M1.1,0C4.5,0,7.9,0,11.2,0c2.3,0,4.8,0,7,0.5c3.9,0.9,6.6,3.4,8.3,7.1c0.1,0.3,0.1,0.9-0.1,1.2
			c-2.7,2.8-5.4,5.5-8.1,8.2C18.2,17,18.1,17,18.1,17C12.4,11.4,6.8,5.7,1.1,0z"/>
		<path class="st1" d="M35.9,1.4c0,5,0.3,10.3-0.1,15.5c-0.4,4.6-3.2,7.8-7.4,9.6c-0.3,0.1-0.8,0.1-1-0.1c-2.8-2.8-5.6-5.5-8.3-8.2
			C24.8,12.6,30.4,6.9,35.9,1.4z"/>
		<path class="st0" d="M17.8,19.1c5.7,5.7,11.3,11.3,17,17c-0.1,0-0.3,0.1-0.5,0.1c-4.4,0-8.7,0-13.1-0.1c-5.4-0.1-9.3-2.6-11.6-7.4
			c-0.3-0.6-0.3-1,0.3-1.5C12.5,24.4,15.2,21.7,17.8,19.1z"/>
	</g>
</g>
</svg>
