<?xml version="1.0" encoding="utf-8"?>
<!-- Generator: Adobe Illustrator 21.1.0, SVG Export Plug-In . SVG Version: 6.00 Build 0)  -->
<svg version="1.0" id="Layer_1" xmlns="http://www.w3.org/2000/svg" xmlns:xlink="http://www.w3.org/1999/xlink" x="0px" y="0px"
	 viewBox="0 0 143.5 36.1" style="enable-background:new 0 0 143.5 36.1;" xml:space="preserve">
<style type="text/css">
	.st0{fill:#FFFFFF;}
	.st1{fill:#000375;}
</style>
<g id="dEmkP2.tif">
	<g>
		<path class="st0" d="M0,19.6c0.2-0.7,0.3-1.4,0.6-2.1c1.1-3.6,3.4-6.3,6.7-8.1C7.6,9.2,8,9,8.4,9.4c2.8,2.9,5.7,5.7,8.6,8.6
			c-0.1,0.2-0.2,0.3-0.4,0.4C11.2,23.9,5.8,29.4,0.4,34.8C0.3,34.9,0.1,35,0,35.1C0,29.9,0,24.8,0,19.6z"/>
		<path class="st0" d="M1.1,0C4.5,0,7.9,0,11.2,0c2.3,0,4.8,0,7,0.5c3.9,0.9,6.6,3.4,8.3,7.1c0.1,0.3,0.1,0.9-0.1,1.2
			c-2.7,2.8-5.4,5.5-8.1,8.2C18.2,17,18.1,17,18.1,17C12.4,11.4,6.8,5.7,1.1,0z"/>
		<path class="st1" d="M35.9,1.4c0,5,0.3,10.3-0.1,15.5c-0.4,4.6-3.2,7.8-7.4,9.6c-0.3,0.1-0.8,0.1-1-0.1c-2.8-2.8-5.6-5.5-8.3-8.2
			C24.8,12.6,30.4,6.9,35.9,1.4z"/>
		<path class="st0" d="M17.8,19.1c5.7,5.7,11.3,11.3,17,17c-0.1,0-0.3,0.1-0.5,0.1c-4.4,0-8.7,0-13.1-0.1c-5.4-0.1-9.3-2.6-11.6-7.4
			c-0.3-0.6-0.3-1,0.3-1.5C12.5,24.4,15.2,21.7,17.8,19.1z"/>
	</g>
</g>
<g>
	<g>
		<path class="st0" d="M62,14.7c-0.4-0.5-0.9-0.9-1.4-1.2c-0.6-0.3-1.2-0.4-1.8-0.4c-0.7,0-1.3-0.3-1.8,0c-0.6,0.3-1.1,1-1.5,1.5
			c0,0,0-2.2,0-4.3c0-2.1-3.6-4.7-3.6-4.6c0,2.5,0,19.6,0,19.6h2.4c0.2,0,0.4,0,0.6-0.1c0.1-0.1,0.2-0.3,0.3-0.5l0.1-0.6
			c0.2,0.2,0.4,0.4,0.6,0.6c0.2,0.2,0.4,0.3,0.7,0.5c0.2,0.1,0.5,0.2,0.8,0.3c0.3,0.1,0.6,0.1,1,0.1c0.8,0,1.4-0.2,2.1-0.5
			c0.6-0.3,1.2-0.7,1.6-1.3c0.5-0.6,0.8-1.2,1-2c0.2-0.8,0.4-1.7,0.4-2.6c0-0.9-0.1-1.7-0.3-2.4C62.7,15.8,62.4,15.2,62,14.7z
			 M59.4,20.8c-0.1,0.5-0.3,0.9-0.5,1.1c-0.2,0.3-0.4,0.5-0.7,0.6c-0.3,0.1-0.6,0.2-0.9,0.2c-0.3,0-0.6-0.1-1-0.2
			c-0.3-0.1-0.6-0.3-0.9-0.6v-5.1c0.3-0.4,0.6-0.6,1-0.8c0.3-0.2,0.7-0.3,1.1-0.3c0.3,0,0.6,0.1,0.9,0.2c0.3,0.1,0.5,0.3,0.6,0.6
			c0.2,0.3,0.3,0.6,0.4,1c0.1,0.4,0.1,0.9,0.1,1.5C59.5,19.8,59.5,20.3,59.4,20.8z M72.2,21.8c-0.3,0.3-0.7,0.5-1,0.7
			c-0.3,0.2-0.7,0.2-1.1,0.2c-0.5,0-0.9-0.2-1.2-0.5c-0.3-0.3-0.4-0.8-0.4-1.4v-7.6H65v7.6c0,0.7,0.1,1.3,0.3,1.8
			c0.2,0.6,0.4,1,0.8,1.4c0.3,0.4,0.8,0.7,1.3,0.9c0.5,0.2,1.1,0.3,1.7,0.3c0.4,0,0.7,0,1.1-0.1c0.3-0.1,0.6-0.2,0.9-0.3
			c0.3-0.1,0.5-0.3,0.8-0.5c0.2-0.2,0.5-0.4,0.7-0.6l0.2,0.7c0.1,0.4,0.4,0.6,0.9,0.6h2.2V13.3h-3.6V21.8z M86.2,13.5
			c-0.2,0.1-0.3,0.3-0.4,0.4L84,19c-0.1,0.2-0.2,0.5-0.3,0.7c-0.1,0.2-0.2,0.5-0.3,0.7c-0.1-0.5-0.3-1-0.5-1.4l-2-5.1
			c-0.1-0.2-0.2-0.3-0.3-0.4c-0.2-0.1-0.4-0.2-0.6-0.2h-3.2l4.8,10.9L79.4,29h2.7c0.3,0,0.6-0.1,0.7-0.2c0.2-0.1,0.3-0.3,0.4-0.5
			l6.4-15h-2.9C86.5,13.3,86.3,13.3,86.2,13.5z M98.4,21.7c-0.2,0-0.4,0.1-0.5,0.2c-0.1,0.1-0.3,0.2-0.5,0.4
			c-0.2,0.1-0.4,0.2-0.6,0.3c-0.2,0.1-0.6,0.2-1,0.2c-0.8,0-1.4-0.3-1.8-0.9c-0.4-0.6-0.7-1.5-0.7-2.6c0-0.5,0.1-1,0.2-1.5
			c0.1-0.4,0.3-0.8,0.5-1.1c0.2-0.3,0.5-0.5,0.8-0.7c0.3-0.2,0.7-0.2,1.1-0.2c0.4,0,0.7,0,0.9,0.1c0.2,0.1,0.4,0.2,0.6,0.3
			c0.2,0.1,0.3,0.2,0.5,0.3c0.1,0.1,0.3,0.1,0.5,0.1c0.2,0,0.3,0,0.4-0.1c0.1-0.1,0.2-0.2,0.3-0.3l0.9-1.3c-0.6-0.6-1.2-1-1.9-1.3
			c-0.7-0.3-1.5-0.4-2.5-0.4c-1,0-1.8,0.2-2.6,0.5c-0.7,0.3-1.4,0.7-1.9,1.3c-0.5,0.5-0.9,1.2-1.1,1.9c-0.3,0.7-0.4,1.5-0.4,2.4
			c0,1,0.1,1.9,0.4,2.6c0.3,0.8,0.7,1.4,1.2,1.9c0.5,0.5,1.1,0.9,1.8,1.2c0.7,0.3,1.4,0.4,2.1,0.4c0.4,0,0.8,0,1.3-0.1
			c0.4-0.1,0.9-0.2,1.3-0.3c0.4-0.1,0.8-0.4,1.3-0.6c0.4-0.3,0.8-0.6,1.2-1l-1-1.3C98.9,21.9,98.7,21.7,98.4,21.7z M118.3,13.5
			c-0.2,0.1-0.3,0.3-0.4,0.4l-1.8,5.1c-0.1,0.2-0.2,0.5-0.3,0.7c-0.1,0.2-0.2,0.5-0.3,0.7c-0.1-0.5-0.3-1-0.5-1.4l-2-5.1
			c-0.1-0.2-0.2-0.3-0.3-0.4c-0.2-0.1-0.4-0.2-0.6-0.2H109l0.1,0.1c-0.3-0.2-0.8-0.4-1.3-0.4c-0.6,0-1.2,0.2-1.7,0.6
			c-0.5,0.4-0.9,0.9-1.3,1.5l-0.2-1c0-0.2-0.1-0.3-0.1-0.4c0-0.1-0.1-0.2-0.2-0.3c-0.1-0.1-0.2-0.1-0.3-0.1c-0.1,0-0.3,0-0.4,0h-2.1
			v11.9h3.6V18c0.2-0.5,0.5-0.9,0.8-1.1c0.3-0.3,0.7-0.4,1.3-0.4c0.1,0,0.2,0,0.3,0c0.1,0,0.2,0,0.3,0c0.1,0,0.2,0,0.3,0
			c0.1,0,0.2,0,0.2,0c0.2,0,0.3,0,0.4-0.1c0.1-0.1,0.2-0.2,0.2-0.3l0.2-2.6l4.7,10.7l-2.3,4.8h2.7c0.3,0,0.6-0.1,0.7-0.2
			c0.2-0.1,0.3-0.3,0.4-0.5l6.4-15h-2.9C118.6,13.3,118.4,13.3,118.3,13.5z M133,14.7c-0.4-0.5-0.8-0.9-1.4-1.2
			c-0.5-0.3-1.1-0.4-1.7-0.4c-0.8,0-1.5,0.2-2.1,0.5c-0.6,0.3-1.1,0.7-1.6,1.2l-0.3-0.9c-0.1-0.4-0.4-0.6-0.9-0.6h-2.2V29h3.6v-4.6
			c0.3,0.3,0.7,0.5,1.2,0.7c0.4,0.2,0.9,0.3,1.6,0.3c0.8,0,1.5-0.2,2.1-0.5c0.6-0.3,1.2-0.8,1.6-1.3c0.5-0.6,0.8-1.2,1.1-2
			c0.3-0.8,0.4-1.6,0.4-2.5c0-1-0.1-1.8-0.3-2.6C133.7,15.8,133.4,15.2,133,14.7z M130.3,20.8c-0.1,0.5-0.3,0.8-0.5,1.1
			c-0.2,0.3-0.4,0.5-0.7,0.6c-0.3,0.1-0.6,0.2-0.9,0.2c-0.3,0-0.7-0.1-1-0.2c-0.3-0.1-0.6-0.3-0.9-0.6v-5.1c0.3-0.4,0.6-0.6,1-0.8
			c0.3-0.2,0.8-0.3,1.3-0.3c0.3,0,0.5,0.1,0.8,0.2c0.2,0.1,0.4,0.3,0.6,0.6c0.2,0.3,0.3,0.6,0.4,1c0.1,0.4,0.1,1,0.1,1.6
			C130.5,19.8,130.5,20.4,130.3,20.8z M142.4,22.7c-0.1-0.1-0.1-0.2-0.2-0.2c-0.1,0-0.2-0.1-0.3-0.1c-0.1,0-0.1,0-0.2,0
			c-0.1,0-0.1,0.1-0.2,0.1c-0.1,0-0.1,0.1-0.2,0.1c-0.1,0-0.2,0-0.3,0c-0.3,0-0.4-0.1-0.6-0.3c-0.1-0.2-0.2-0.4-0.2-0.7v-5.9h3v-2.4
			h-3V9.8h-1.9c-0.4,0-0.7,0.2-0.8,0.6l-0.7,2.9l-1.9,0.4V15c0,0.2,0.1,0.4,0.2,0.5c0.1,0.1,0.3,0.2,0.5,0.2h1v6.2
			c0,0.5,0.1,1,0.2,1.4c0.2,0.4,0.4,0.8,0.7,1.1c0.3,0.3,0.7,0.5,1.1,0.7c0.4,0.2,0.9,0.2,1.5,0.2c0.6,0,1.2-0.1,1.8-0.3
			c0.6-0.2,1.1-0.4,1.6-0.8L142.4,22.7z"/>
	</g>
</g>
</svg>
