<?xml version="1.0" encoding="utf-8"?>
<!-- Generator: Adobe Illustrator 21.1.0, SVG Export Plug-In . SVG Version: 6.00 Build 0)  -->
<svg version="1.0" id="Layer_1" xmlns="http://www.w3.org/2000/svg" xmlns:xlink="http://www.w3.org/1999/xlink" x="0px" y="0px"
	 viewBox="0 0 507.8 415.2" style="enable-background:new 0 0 507.8 415.2;" xml:space="preserve">
<g id="hx296D.tif">
	<g>
		<path d="M190.8,415.2c-21,0-42,0-63,0c-5.4-0.8-10.8-1.6-16.2-2.4c-36-5.2-69.4-18-101.2-35.4c-3.6-1.9-6.9-4.2-10.4-6.3
			c0-0.6,0-1.2,0-1.8c55.5,4.2,105.9-8.8,151.4-43.1c-47.3-5.4-79.9-28.4-96.8-72.7c5.9,0,10.7,0,15.5,0c4.8,0,9.7,0.1,14.5-0.3
			c4.5-0.3,9-1.2,13.5-1.8c-60.7-17.4-83.6-74.5-79.5-104.2c7.1,2.6,14.2,5.7,21.5,7.8c7.1,2,14.5,3,21.8,4.4c0.2-0.5,0.4-1,0.6-1.6
			c-21.3-16.1-35.8-36.8-41.2-63c-5.4-26-2.2-51,11.4-75.8C90.1,85.1,161,123,248.8,128.7c-0.3-2.5-0.5-4.2-0.7-6
			c-4.1-35.1,3.8-66.4,29.5-91.7c30-29.4,65.7-37.5,105.9-26.3c15,4.2,28,12.2,39.4,22.8c4,3.8,8.3,5.5,13.6,3.6
			c15.7-5.8,31.5-11.7,47.1-17.6c3.6-1.4,7.1-3.1,11.9-5.2c-8.4,23.6-23,40.7-41,55.6c18.7-1.7,36.1-7.5,53.4-13.9c0,1,0,2,0,3
			c-1,1.1-2.1,2.1-2.9,3.2c-12,16.1-25.8,30.6-41.7,42.8c-3.7,2.8-4.9,5.9-5.3,10.4c-1.3,18.8-1.6,37.7-4.8,56.2
			c-11.2,63.8-38.8,119.7-84.8,165.8c-41.1,41.2-90.3,67.6-147.6,78.6C210.9,412.3,200.8,413.6,190.8,415.2z"/>
	</g>
</g>
</svg>
