<?xml version="1.0" encoding="utf-8"?>
<!-- Generator: Adobe Illustrator 21.1.0, SVG Export Plug-In . SVG Version: 6.00 Build 0)  -->
<svg version="1.0" id="Layer_1" xmlns="http://www.w3.org/2000/svg" xmlns:xlink="http://www.w3.org/1999/xlink" x="0px" y="0px"
	 viewBox="0 0 97.8 98.1" style="enable-background:new 0 0 97.8 98.1;" xml:space="preserve">
<path d="M53.7,55.8c0,2.6-2.1,4.8-4.8,4.8s-4.8-2.1-4.8-4.8s2.1-4.8,4.8-4.8h0C51.5,51,53.7,53.1,53.7,55.8z M49.7,31.2
	c-0.3,0-0.5,0-0.8,0c-1.7,0-3.3,0.6-4.5,1.8c-1.5,1.3-2.3,3.1-2.3,5.1v3.8h13.7v-3.5C55.7,34.7,53.1,31.7,49.7,31.2L49.7,31.2z
	 M97.8,49c0,27-21.9,48.9-48.9,48.9c-7.2,0-14.3-1.6-20.8-4.6c-6.8,3-14.1,4.7-21.5,4.8c-1.7,0.1-3.2-1.3-3.2-3c0-0.7,0.2-1.4,0.6-2
	c3.1-4,5.5-8.5,6.9-13.4c-17-21-13.8-51.8,7.2-68.8s51.8-13.8,68.8,7.2C94,26.8,97.8,37.7,97.8,49z M68.7,46.9c0-2.4-1.7-4.5-4.2-5
	v-3.5c0-8.6-6.7-15.6-15.3-16h-0.4c-4.1,0-8.1,1.6-11,4.5c-3.1,2.9-4.8,7-4.8,11.2v0.3l0,0v3.6c-2.3,0.5-3.9,2.6-3.9,5l-0.1,18.5
	c0,2.8,2.3,5.1,5.1,5.1h29.4c2.8,0,5.1-2.3,5.1-5.1L68.7,46.9z"/>
</svg>
