<?xml version="1.0" encoding="utf-8"?>
<!-- Generator: Adobe Illustrator 21.1.0, SVG Export Plug-In . SVG Version: 6.00 Build 0)  -->
<svg version="1.0" id="Layer_1" xmlns="http://www.w3.org/2000/svg" xmlns:xlink="http://www.w3.org/1999/xlink" x="0px" y="0px"
	 viewBox="0 0 181.6 180" style="enable-background:new 0 0 181.6 180;" xml:space="preserve">
<g id="_x34_Ycafv.tif">
	<g>
		<path d="M81.6,0c6.3,0,12.7,0,19,0c0.9,0.3,1.8,0.7,2.8,0.9c37.4,5.2,66.8,32.1,75.5,69c1.2,5,1.8,10.1,2.7,15.2c0,3.3,0,6.7,0,10
			c-0.8,4.7-1.4,9.5-2.5,14.2c-13.8,61-82.1,89.8-135.6,57.2c-1.9-1.2-4.6-1.8-6.9-1.6c-9.6,0.9-19.2,2.3-28.8,3.2
			c-6.8,0.7-9.2-2.5-7.2-9.1c2.6-8.4,5.6-16.7,7.9-25.2c0.7-2.8,0.7-6.3-0.4-8.9C-13.2,73.5,16.3,15.4,70.5,2.4
			C74.1,1.5,77.9,0.8,81.6,0z M43.5,53.1c-6.8-0.3-9.4,3.3-6.5,11.2c3.5,9.3,7.2,18.6,10.5,28c0.8,2.1,0.8,4.9,0.2,7.1
			c-2.3,8.2-5,16.2-7.6,24.3c-2.7,8.7,0.3,12.1,9.5,10.8c9.4-1.3,18.8-2.5,28.3-3.4c2.4-0.2,5.3,0.5,7.4,1.7
			c8.6,4.8,16.9,10,25.4,14.9c6.9,4,11,1.8,11.8-6.2c0.9-8.8,1.7-17.6,2.9-26.3c0.3-2.1,1.4-4.4,2.9-6c7-7.4,14.2-14.5,21.2-21.9
			c5.4-5.6,4.5-10.1-2.8-12.8c-8.1-3-16.4-5.6-24.4-8.8c-2.1-0.9-4.4-3-5.3-5.1c-3.5-8.1-6.3-16.4-9.6-24.6
			c-2.8-7.3-7.3-8.3-12.8-2.8c-6.4,6.3-12.5,12.9-19,19.1c-1.6,1.5-4.3,2.6-6.4,2.5C61.2,54.5,53.1,53.8,43.5,53.1z"/>
	</g>
</g>
</svg>
