<?xml version="1.0" encoding="utf-8"?>
<!-- Generator: Adobe Illustrator 21.1.0, SVG Export Plug-In . SVG Version: 6.00 Build 0)  -->
<svg version="1.0" id="Layer_1" xmlns="http://www.w3.org/2000/svg" xmlns:xlink="http://www.w3.org/1999/xlink" x="0px" y="0px"
	 viewBox="0 0 184.5 123.9" style="enable-background:new 0 0 184.5 123.9;" xml:space="preserve">
<g id="tbVDAt.tif">
	<g>
		<path d="M11.5,0c44,0,88,0,132,0c11.7,5.6,15.5,16.8,11.1,32.6c-4.3,0-8.5,0-13.2,0c0-2.9,0-5.7,0-8.5c-42.4,0-84.5,0-126.6,0
			c0,8.9,0,17.4,0,26.7c33,0,65.8,0,99.5,0c-1.8,3-2.6,5.6-4.3,6.8c-9.9,6.5-12.1,16-11.6,27c0.4,7.1,0.1,14.2,0.1,21.5
			c-27.4,0-54.1,0-80.7,0c-12.2,0-17.6-5.4-17.6-17.7c0-23,0.3-46-0.2-69C-0.2,10,2.8,3.6,11.5,0z"/>
		<path d="M184.5,117c-2.4,5.2-6.5,7-12.1,6.9c-16-0.2-32,0-48-0.1c-8.5,0-11.8-3.4-11.8-11.8c0-10.7,0.1-21.3,0-32
			c0-5,1.6-8.7,6.2-11c1.2-0.6,2.2-2.3,2.6-3.7c4.2-12.1,14.6-19.9,27-20.1c12.2-0.1,23,7.7,27.3,19.7c0.6,1.8,2.4,3.1,3.7,4.6
			c1.6,1.8,3.3,3.6,5,5.4C184.5,89,184.5,103,184.5,117z M162.4,68.3c-2.5-6.5-7.6-9.8-14.4-9.6c-6.3,0.2-11.1,3.7-12.8,9.6
			C144.2,68.3,153.2,68.3,162.4,68.3z"/>
	</g>
</g>
</svg>
