<?xml version="1.0" encoding="utf-8"?>
<!-- Generator: Adobe Illustrator 21.1.0, SVG Export Plug-In . SVG Version: 6.00 Build 0)  -->
<svg version="1.0" id="Layer_1" xmlns="http://www.w3.org/2000/svg" xmlns:xlink="http://www.w3.org/1999/xlink" x="0px" y="0px"
	 viewBox="0 0 140.1 153.9" style="enable-background:new 0 0 140.1 153.9;" xml:space="preserve">
<g id="_x32_mM0hy.tif">
	<g>
		<path d="M74,153.9c-2.7,0-5.3,0-8,0c-3.3-1.4-6.9-2.4-10-4.2c-14.2-8-28.3-16.2-42.4-24.5c-9-5.3-13.6-13.4-13.7-24
			c0-16,0.1-32,0-48C-0.1,42,4.6,33.7,14.3,28.2c14-8,27.9-16.2,41.9-24.2c9.1-5.2,18.5-5.2,27.6,0c14.3,8.2,28.6,16.4,42.8,24.8
			c8.9,5.2,13.4,13.3,13.4,23.6c0.1,16.5,0,33,0,49.5c0,9.2-3.6,17.2-11.2,21.7C110.9,134.1,92.3,143.8,74,153.9z M90.8,69.1
			c0-4.2,0.1-7.7,0-11.2C90.6,45.4,81.9,36.2,70.3,36c-11.8-0.2-20.8,9.2-21,21.9c-0.1,3.6,0,7.2,0,11.2c-6.2-1.2-7.6,1.4-7.5,6.6
			c0.3,12.1,0.2,24.3,0,36.5c-0.1,4.1,1.3,5.6,5.5,5.6c15.2-0.2,30.3-0.1,45.5,0c4.1,0,5.6-1.5,5.5-5.6c-0.2-12.2-0.3-24.3,0-36.5
			C98.4,70.6,97.1,67.9,90.8,69.1z"/>
		<path d="M91.9,75.3c0,12,0,23.9,0,36.1c-14.6,0-28.9,0-43.7,0c0-12,0-23.8,0-36.1C62.6,75.3,77.1,75.3,91.9,75.3z"/>
		<path d="M85.2,68.7c-10.3,0-19.7,0-30.2,0c0.4-5.6,0.2-11.2,1.3-16.5c1.3-6,7.7-10.2,13.9-10.1c6.4,0,12.6,4.4,13.9,10.7
			C85,57.7,84.8,62.9,85.2,68.7z"/>
	</g>
</g>
</svg>
